<svg width="640" height="400" viewBox="0 0 640 400" fill="none" xmlns="http://www.w3.org/2000/svg">
  <defs>
    <linearGradient id="bg" x1="0" y1="0" x2="1" y2="1">
      <stop offset="0%" stop-color="#f5f1e8" />
      <stop offset="100%" stop-color="#e7e0d5" />
    </linearGradient>
    <linearGradient id="card" x1="0" y1="0" x2="1" y2="1">
      <stop offset="0%" stop-color="#ffffff" />
      <stop offset="100%" stop-color="#f2ece3" />
    </linearGradient>
  </defs>
  <rect width="640" height="400" rx="28" fill="url(#bg)" />
  <rect x="70" y="64" width="500" height="272" rx="24" fill="url(#card)" stroke="#ded7cc" />
  <rect x="110" y="104" width="210" height="18" rx="9" fill="#d7cfc3" />
  <rect x="110" y="136" width="320" height="12" rx="6" fill="#e3ddd3" />
  <rect x="110" y="160" width="280" height="12" rx="6" fill="#e3ddd3" />
  <rect x="110" y="200" width="180" height="44" rx="12" fill="#f0e8dd" />
  <rect x="310" y="200" width="110" height="44" rx="12" fill="#f4c76f" />
  <circle cx="470" cy="230" r="46" fill="#f4ece1" stroke="#e2d9cd" />
  <path d="M450 230C450 216.193 461.193 205 475 205C488.807 205 500 216.193 500 230C500 243.807 488.807 255 475 255C461.193 255 450 243.807 450 230Z" fill="#faf6f0" />
</svg>
